<svg width="147" height="50" fill="none" xmlns="http://www.w3.org/2000/svg"><path d="M67.032 20.288c-1.712 0-3.264-.368-4.656-1.104a8.555 8.555 0 01-3.264-3.096c-.784-1.328-1.176-2.824-1.176-4.488 0-1.664.392-3.152 1.176-4.464a8.323 8.323 0 013.264-3.096c1.392-.752 2.952-1.128 4.68-1.128 1.456 0 2.768.256 3.936.768a7.886 7.886 0 012.976 2.208l-2.496 2.304c-1.136-1.312-2.544-1.968-4.224-1.968-1.04 0-1.968.232-2.784.696a4.862 4.862 0 00-1.92 1.896c-.448.816-.672 1.744-.672 2.784 0 1.04.224 1.968.672 2.784a5.03 5.03 0 001.92 1.92c.816.448 1.744.672 2.784.672 1.68 0 3.088-.664 4.224-1.992l2.496 2.304a7.78 7.78 0 01-2.976 2.232c-1.184.512-2.504.768-3.96.768zm17.063 0c-1.713 0-3.264-.368-4.656-1.104a8.555 8.555 0 01-3.264-3.096c-.784-1.328-1.176-2.824-1.176-4.488 0-1.664.392-3.152 1.175-4.464a8.323 8.323 0 013.264-3.096c1.392-.752 2.953-1.128 4.68-1.128 1.457 0 2.769.256 3.937.768a7.886 7.886 0 012.975 2.208l-2.496 2.304C87.398 6.88 85.99 6.224 84.31 6.224c-1.04 0-1.968.232-2.784.696a4.862 4.862 0 00-1.92 1.896c-.447.816-.671 1.744-.671 2.784 0 1.04.224 1.968.671 2.784a5.03 5.03 0 001.92 1.92c.817.448 1.745.672 2.785.672 1.68 0 3.087-.664 4.223-1.992l2.496 2.304a7.78 7.78 0 01-2.975 2.232c-1.184.512-2.505.768-3.96.768zm15.974-7.056h-2.688V20h-3.864V3.2h3.864v6.792h2.784l4.416-6.792h4.104l-5.496 8.112L108.853 20h-4.416l-4.368-6.768zM60.603 28.201h13.56v3.096h-9.696v3.456h4.656c2.032 0 3.576.424 4.632 1.272 1.072.848 1.608 2.072 1.608 3.672 0 1.68-.592 2.984-1.776 3.912-1.184.928-2.856 1.392-5.016 1.392h-7.968v-16.8zm7.752 13.92c.992 0 1.752-.192 2.28-.576.528-.4.792-.976.792-1.728 0-1.472-1.024-2.208-3.072-2.208h-3.888v4.512h3.888zm24.502-13.92l-7.152 13.296c-.688 1.28-1.52 2.248-2.496 2.904a5.458 5.458 0 01-3.144.984c-.88 0-1.792-.192-2.736-.576l.936-2.952c.672.208 1.232.312 1.68.312.48 0 .912-.112 1.296-.336.384-.24.736-.608 1.056-1.104l.144-.192-6.624-12.336h4.152l4.464 9.024 4.608-9.024h3.816zm16.542 0v16.8h-3.84V31.369h-5.76l-.12 3.504c-.08 2.384-.272 4.32-.576 5.808-.304 1.472-.816 2.608-1.536 3.408-.704.784-1.696 1.176-2.976 1.176-.528 0-1.168-.088-1.92-.264l.24-3.288c.208.064.44.096.696.096.928 0 1.576-.544 1.944-1.632.368-1.104.6-2.824.696-5.16l.24-6.816H109.4zm15.572 13.2h-7.8l-1.488 3.6h-3.984l7.488-16.8h3.84l7.512 16.8h-4.08l-1.488-3.6zm-1.224-2.952l-2.664-6.432-2.664 6.432h5.328zm21.016-7.08h-5.376v13.632h-3.84V31.369h-5.352v-3.168h14.568v3.168z" fill="#fff"/><path d="M25.253 50c13.923 0 25.252-11.215 25.252-25S39.176 0 25.252 0C11.33 0 0 11.215 0 25c0 13.786 11.329 25 25.253 25zm0-45.508c11.423 0 20.715 9.2 20.715 20.509 0 11.31-9.292 20.509-20.716 20.509-11.422 0-20.714-9.2-20.714-20.51 0-11.31 9.292-20.509 20.716-20.509z" fill="#FF6000"/><path d="M25.247 39.402c8.366 0 15.172-6.74 15.172-15.022S33.614 9.359 25.247 9.359c-8.366 0-15.172 6.74-15.172 15.02 0 8.283 6.806 15.023 15.172 15.023zm0-25.552c5.863 0 10.635 4.724 10.635 10.53 0 5.807-4.771 10.53-10.635 10.53s-10.635-4.723-10.635-10.53c0-5.806 4.77-10.53 10.635-10.53z" fill="#FF6000"/><path d="M25.246 28.181c2.18 0 3.946-1.749 3.946-3.906s-1.767-3.906-3.946-3.906c-2.179 0-3.945 1.749-3.945 3.906s1.766 3.906 3.945 3.906z" fill="#FF6000"/></svg>